<?xml version="1.0" encoding="utf-8"?>
<svg version="1.1" viewBox="729.509 196.981 58.642 59.774" fill="none" stroke="none" stroke-linecap="square" stroke-miterlimit="10" xmlns="http://www.w3.org/2000/svg">
  <clipPath id="g11478c0e488_0_2019.0">
    <path d="m0 0l960.0 0l0 540.0l-960.0 0l0 -540.0z" clip-rule="nonzero"/>
  </clipPath>
  <g clip-path="url(#g11478c0e488_0_2019.0)">
    <path fill="#434343" d="m818.6537 -66.23855l0 9.385559l118.42145 0l0 -9.385559z" fill-rule="evenodd"/>
    <path fill="#9fa9b9" d="m818.6537 -175.2723l0 118.4188l47.307068 0l0 -3.4752579c0 -0.7565155 0.61468506 -1.2293434 1.2057495 -1.2293434l21.395752 0c0.59106445 0 1.2057495 0.4728279 1.2057495 1.2293434l0 3.4752579l47.30713 0l0 -118.4188z" fill-rule="evenodd"/>
    <path fill="#ffffff" d="m867.1665 -62.763275c-1.3475952 0 -2.2695923 1.0638542 -2.2695923 2.4350471l0 2.2695541l-46.243225 0l0 1.2057037l47.307068 0l0 -3.4752579c0 -0.7565193 0.61468506 -1.2293434 1.2057495 -1.2293434l21.395752 0c0.59106445 0 1.2057495 0.4728241 1.2057495 1.2293434l0 3.4752579l47.30713 0l0 -1.2057037l-46.243225 0l0 -2.2695541c0 -1.3711929 -1.0639038 -2.4350471 -2.2696533 -2.4350471z" fill-rule="evenodd"/>
    <path fill="#434343" d="m937.0745 -66.23855l0 9.385559l118.42145 0l0 -9.385559z" fill-rule="evenodd"/>
    <path fill="#9fa9b9" d="m937.0745 -175.2723l0 118.4188l47.472595 0l0 -3.4752579c0 -0.7565155 0.44921875 -1.2293434 1.0639038 -1.2293434l21.372131 0c0.61468506 0 1.2056885 0.4728279 1.2056885 1.2293434l0 3.4752579l47.30713 0l0 -118.4188z" fill-rule="evenodd"/>
    <path fill="#434343" d="m937.0745 -175.2723l0 118.4188l1.2057495 0l0 -118.4188z" fill-rule="evenodd"/>
    <path fill="#ffffff" d="m985.611 -62.763275c-1.2293701 0 -2.293274 1.0638542 -2.293274 2.4350471l0 2.2695541l-46.243225 0l0 1.2057037l47.472595 0l0 -3.4752579c0 -0.7565193 0.44921875 -1.2293434 1.0639038 -1.2293434l21.372131 0c0.61468506 0 1.2056885 0.4728241 1.2056885 1.2293434l0 3.4752579l47.30713 0l0 -1.2057037l-46.07776 0l0 -2.2695541c0 -1.3711929 -1.0638428 -2.4350471 -2.4350586 -2.4350471z" fill-rule="evenodd"/>
    <path fill="#518ab8" d="m822.1991 -49.878677l0 9.40826l229.76099 0l0 -9.40826z" fill-rule="evenodd"/>
    <path fill="#607d8b" d="m818.64136 -56.85247l0 2.434803l236.88745 0l0 -2.434803z" fill-rule="evenodd"/>
    <path fill="#ffffff" d="m935.8688 -174.65762l0 117.213104l1.2057495 0l0 -117.213104z" fill-rule="evenodd"/>
    <path fill="#434343" d="m753.04 797.1235c-3.1859741 0 -5.6881714 2.4866333 -5.6881714 5.6726074l0 13.163635c0 3.1859741 2.5021973 5.6881714 5.6881714 5.6881714l12.060181 0c3.1860352 0 5.6881714 -2.5021973 5.6881714 -5.6881714l0 -13.163635c0 -3.1859741 -2.5021362 -5.6726074 -5.6881714 -5.6726074z" fill-rule="evenodd"/>
    <path fill="#434343" d="m970.1214 797.1235c-0.06213379 0 -0.10876465 0 -0.17095947 0l-11.966919 0c-3.1860352 0 -5.781433 2.4866333 -5.781433 5.6726074l0 13.163635c0 3.1859741 2.595398 5.6881714 5.781433 5.6881714l11.966919 0c3.1860352 0 5.781433 -2.5021973 5.6726685 -5.6881714l0 -13.163635c0.10876465 -3.1238403 -2.3934326 -5.6726074 -5.501709 -5.6726074z" fill-rule="evenodd"/>
    <path fill="#434343" d="m751.144 552.9067c-6.3720093 0 -11.454041 5.0820312 -11.454041 11.36084l0 165.47003c0 6.2787476 5.0820312 11.360779 11.454041 11.360779l220.79767 0c6.2787476 0 11.36084 -5.0820312 11.36084 -11.360779l0 -165.47003c0 -6.2788086 -5.0820923 -11.36084 -11.454102 -11.36084z" fill-rule="evenodd"/>
    <path fill="#434343" d="m767.69543 590.983l0 109.55182l187.60107 0l0 -109.55182z" fill-rule="evenodd"/>
    <path fill="#ffffff" d="m767.69543 662.3489l0 4.9887695l187.60107 0l0 -4.9887695z" fill-rule="evenodd"/>
    <path fill="#f9f9f9" d="m937.25305 589.3822l-188.99982 142.65515l226.98315 0l0 -142.65515z" fill-rule="evenodd"/>
    <path fill="#9fa9b9" d="m747.3518 572.7374l0 5.874695c0 4.9888306 5.097595 8.982971 11.376343 8.982971l205.53595 0c6.185486 0 11.36084 -3.9941406 11.36084 -8.982971l0 -5.874695l-18.136902 0c0 4.180664 -4.2894287 7.5687256 -9.573547 7.5687256l-172.85223 0c-5.2685547 0 -9.557983 -3.3880615 -9.557983 -7.5687256z" fill-rule="evenodd"/>
    <path fill="#c7c9d0" d="m752.34064 567.6554c-2.6886597 0 -4.880005 2.1913452 -4.880005 4.880066c0 2.7974243 2.1913452 4.9887695 4.880005 4.9887695l218.31104 0c2.6886597 0 4.9732666 -2.1913452 4.9732666 -4.9887695l0.10876465 0c0 -2.6887207 -2.3001099 -4.880066 -4.9888306 -4.880066z" fill-rule="evenodd"/>
    <path fill="#f9f9f9" d="m801.4823 569.84674c-1.4920044 0 -2.6886597 1.1967163 -2.6886597 2.6886597c0 1.4920044 1.1966553 2.6887207 2.6886597 2.6887207l119.91797 0c1.4920044 0 2.7974854 -1.1967163 2.7974854 -2.6887207c0 -1.4919434 -1.305481 -2.6886597 -2.7974854 -2.6886597z" fill-rule="evenodd"/>
    <path fill="#434343" d="m458.74396 786.8649l0 11.101807l280.3448 0l0 -11.101807z" fill-rule="evenodd"/>
    <path fill="#434343" d="m181.17058 786.8649l0 11.101807l280.3448 0l0 -11.101807z" fill-rule="evenodd"/>
    <path fill="#434343" d="m-97.67098 560.92426l0 1.451416l279.6458 0l0 -1.451416z" fill-rule="evenodd"/>
    <path fill="#434343" d="m-41.819977 674.24725l0 11.109009l167.94379 0l0 -11.109009z" fill-rule="evenodd"/>
    <path fill="#c7c9d0" d="m-96.94529 674.24725l0 111.899475l279.6179 0l0 -111.899475l-109.552826 0l0 7.0059204c0 0.69781494 -0.7257004 1.423523 -1.4234924 1.423523l-58.893364 0c-0.7257004 0 -1.4514008 -0.725708 -1.4514008 -1.423523l0 -7.0059204z" fill-rule="evenodd"/>
    <path fill="#434343" d="m11.351522 674.24725l0 1.2560425l61.600784 0l0 -1.2560425z" fill-rule="evenodd"/>
    <path fill="#ffffff" d="m-96.94529 674.24725l0 1.451416l106.87332 0l0.16746902 5.5545044c0 1.423523 1.0885506 2.6795654 2.7074203 2.6795654l58.697983 0c1.6188736 0 2.8748932 -1.2560425 2.8748932 -2.6795654l0 -5.749878l107.0687 0l0 -1.2560425l-108.32472 0l0 7.0059204c-0.16747284 0.69781494 -0.7257004 1.423523 -1.4234924 1.423523l-58.7259 0c-0.8931694 0 -1.4234886 -0.725708 -1.4234886 -1.423523l0 -7.0059204z" fill-rule="evenodd"/>
    <path fill="#434343" d="m-41.819977 562.3757l0 11.081055l167.94379 0l0 -11.081055z" fill-rule="evenodd"/>
    <path fill="#c7c9d0" d="m-96.94529 562.3757l0 111.87158l279.6179 0l0 -111.87158l-109.552826 0l0 6.9780273c0 0.725708 -0.7257004 1.423523 -1.4234924 1.423523l-58.893364 0c-0.7257004 0 -1.4514008 -0.69781494 -1.4514008 -1.423523l0 -6.9780273z" fill-rule="evenodd"/>
    <path fill="#434343" d="m-97.67098 672.8237l0 1.423523l279.6458 0l0 -1.423523z" fill-rule="evenodd"/>
    <path fill="#434343" d="m11.351522 562.3757l0 1.2560425l61.600784 0l0 -1.2560425z" fill-rule="evenodd"/>
    <path fill="#ffffff" d="m-96.94529 562.3757l0 1.423523l106.87332 0l0.16746902 5.5545044c0 1.423523 1.0885506 2.6795654 2.7074203 2.6795654l58.697983 0c1.6188736 0 2.8748932 -1.2560425 2.8748932 -2.6795654l0 -5.721985l107.0687 0l0 -1.2560425l-108.32472 0l0 6.9780273c-0.16747284 0.725708 -0.7257004 1.423523 -1.4234924 1.423523l-58.7259 0c-0.8931694 0 -1.4234886 -0.69781494 -1.4234886 -1.423523l0 -6.9780273z" fill-rule="evenodd"/>
    <path fill="#434343" d="m-97.67139 786.2031l0 11.101807l280.3448 0l0 -11.101807z" fill-rule="evenodd"/>
    <path fill="#518ab8" d="m736.175 214.36176c5.0595093 13.6996155 2.824707 35.64891 2.824707 35.64891c6.1726685 5.3087006 17.105774 5.7656403 19.714478 5.7656403c0.2741089 0 0.45690918 0 0.53167725 -0.00831604c0.03326416 0 0.07476807 0 0.13293457 0c1.6033936 0 13.591614 -0.09968567 20.121582 -5.757324c0 0 -2.243103 -21.949295 2.824646 -35.64891z" fill-rule="evenodd"/>
    <path fill="#7fb0d6" d="m736.175 214.36176c1.1714478 3.3065186 1.9689941 6.770874 2.4508057 10.235245c1.6865234 0.49015808 3.4394531 0.73109436 5.184082 0.73109436c1.8526611 0 3.6970215 -0.26585388 5.4749146 -0.7809448c3.2233887 -1.071701 6.5631714 -1.6034088 9.902893 -1.6034088c3.3397827 0 6.6712036 0.53170776 9.861389 1.6034088c1.7612915 0.53170776 3.5889893 0.79756165 5.416748 0.79756165c1.8359985 0 3.672058 -0.26585388 5.458252 -0.79756165c0.42370605 -3.4643555 1.2793579 -6.8788757 2.40094 -10.185394z" fill-rule="evenodd"/>
    <path fill="#518ab8" d="m759.1959 197.79578c-19.980347 0 -29.15216 5.433319 -27.922607 14.970703c0.9138794 6.804123 7.352417 8.75647 12.62793 8.75647c2.12677 0 4.070801 -0.31570435 5.383423 -0.764328c3.1985474 -1.0634003 6.5299683 -1.595108 9.853088 -1.595108c3.331482 0 6.662903 0.53170776 9.86145 1.595108c1.3292236 0.46524048 3.2981567 0.7975464 5.44989 0.7975464c5.2838135 0 11.689148 -1.9772644 12.561462 -8.789688c1.2212524 -9.5872345 -7.776123 -14.970703 -27.814636 -14.970703z" fill-rule="evenodd"/>
    <path fill="#bedae7" d="m747.0085 230.51233c-0.008300781 0 -0.008300781 0 -0.016601562 0c-0.8557129 0.21600342 -3.406189 20.836044 -3.406189 20.836044l3.406189 1.0634155c0 0 0.8474121 -21.89946 0.016601562 -21.89946z" fill-rule="evenodd"/>
    <path fill="#bedae7" d="m771.11816 230.51233c-0.83081055 0 0.016601562 21.89946 0.016601562 21.89946l3.406189 -1.0634155c0 0 -2.5587769 -20.62004 -3.406189 -20.836044c-0.008300781 0 -0.008300781 0 -0.016601562 0z" fill-rule="evenodd"/>
    <path fill="#bedae7" d="m759.1962 230.56218c-2.243103 0 -2.666809 23.079163 -2.666809 23.079163l6.1311646 0c0 0 -1.2793579 -23.079163 -3.4643555 -23.079163z" fill-rule="evenodd"/>
  </g>
</svg>