<?xml version="1.0" encoding="utf-8"?>
<svg viewBox="134.977 86.268 171.948 196.596" xmlns="http://www.w3.org/2000/svg">
  <g id="g1b013307742_1_32.3" transform="matrix(1, 0, 0, 1, -9.748755, 10.544773)">
    <path fill="#fff7e6" d="m179.31047 79.374435c-4.361725 0.7561035 -8.579788 2.159874 -12.42012 4.242485c-2.867279 1.4879684 -4.990082 3.9857712 -6.096161 7.020256c-4.194977 11.4435425 2.9571686 26.888039 12.021713 32.49083c1.9046783 1.1584549 4.082306 1.848114 6.2330017 1.9685135c-11.000015 2.4762955 -19.82138 11.390327 -24.38176 20.700142c-0.10383606 0.2287445 -0.20690918 0.46183777 -0.30638123 0.68981934c-19.363297 46.804886 41.43721 98.173355 48.45543 103.8439c14.720566 12.002716 30.460556 16.798035 45.347885 14.217346c6.9604797 -1.206604 13.773514 -4.0914917 20.311844 -8.560883c0.55511475 -0.08276367 1.1051025 -0.16914368 1.653595 -0.2642212c24.64679 -4.2725067 40.108826 -21.023087 42.808807 -46.70369c1.0876465 -10.124695 1.0977783 -22.766357 0.028411865 -34.65146c-0.23654175 -3.4339447 -0.5378418 -7.215393 -1.276825 -11.064453c-5.073303 -33.767075 -18.376465 -56.44934 -38.535828 -65.45115c-8.492889 -3.8052292 -18.177689 -4.7090607 -27.353851 -3.1183777c-6.882126 1.193016 -13.480591 3.7896118 -19.08107 7.6166534c-2.5598907 -4.5243225 -5.7379 -8.941498 -9.950653 -12.75782c-9.747437 -8.869698 -24.281448 -12.502045 -37.45804 -10.2178955z" fill-rule="evenodd"/>
  </g>
  <path fill="#689b3c" d="M 171.889 103.116 C 168.903 103.633 166.037 104.583 163.451 105.986 C 161.528 111.292 165.855 120.268 170.068 122.873 C 171.475 121.988 172.159 121.018 172.441 120.189 C 172.862 119.102 173.716 118.259 174.878 118.058 C 174.935 118.048 174.992 118.042 175.049 118.033 C 176.224 117.829 177.938 117.886 180.243 118.482 C 183.663 119.382 188.066 122.663 190.131 125.574 C 193.044 129.683 194.527 134.537 196.051 139.241 L 211.372 133.034 C 208.364 124.682 204.895 116.128 198.254 110.176 C 191.507 104.051 181.126 101.514 171.889 103.116 Z" fill-rule="evenodd"/>
  <path fill="#c8e26c" d="M 173.043 148.597 C 166.122 149.797 160.05 155.822 156.835 162.441 C 143.465 194.648 182.106 235.303 201.447 251.047 C 212.619 260.168 224.594 264.454 236.295 262.426 C 243.304 261.211 250.212 257.736 256.788 251.677 L 178.448 148.682 C 176.614 148.296 174.802 148.292 173.043 148.597 Z" fill-rule="evenodd"/>
  <path fill="#c8e26c" d="M 238.451 118.503 C 228.84 120.169 220.122 125.518 216.286 133.106 L 249.963 254.492 C 252.911 254.376 255.713 254.087 258.355 253.629 C 277.086 250.382 288.108 238.562 290.222 218.476 C 292.879 193.664 289.945 134.964 258.077 120.678 C 251.962 117.94 245.002 117.367 238.451 118.503 Z" fill-rule="evenodd"/>
  <path fill="#c8e26c" d="M 208.041 130.863 C 204.363 131.501 200.723 132.616 197.271 133.99 C 187.303 137.92 177.25 145.056 175.4 155.672 L 254.075 253.636 C 260.424 250.123 263.851 239.162 263.378 231.931 C 261.673 204.898 260.334 170.555 240.456 145.175 C 236.259 139.795 231.26 134.698 224.926 132.178 C 219.586 130.032 213.77 129.87 208.041 130.863 Z" fill-rule="evenodd"/>
  <path fill="#689b3c" d="M 180.721 144.544 C 180.582 144.568 180.44 144.633 180.32 144.739 C 174.539 150.709 172.237 157.498 172.929 166.821 C 172.931 167.247 173.269 167.542 173.695 167.54 L 173.765 167.528 C 174.108 167.468 174.393 167.065 174.333 166.721 C 173.724 157.877 175.866 151.403 181.35 145.767 C 181.645 145.429 181.643 145.003 181.31 144.707 C 181.155 144.563 180.939 144.506 180.721 144.544 Z" fill-rule="evenodd"/>
  <path fill="#689b3c" d="M 261.058 213.582 C 260.705 213.643 260.466 213.945 260.454 214.265 C 260.912 231.65 258.256 245.813 253.222 253.219 C 252.995 253.541 253.079 254.024 253.401 254.251 C 253.564 254.366 253.781 254.4 253.99 254.364 C 254.129 254.339 254.322 254.234 254.425 254.001 C 259.685 246.274 262.342 232.111 261.94 214.223 C 261.95 213.862 261.611 213.567 261.186 213.569 C 261.146 213.571 261.101 213.575 261.058 213.582 Z" fill-rule="evenodd"/>
  <path fill="#689b3c" d="M 217.318 129.156 C 216.961 129.218 216.723 129.524 216.727 129.909 C 216.717 130.265 217.063 130.631 217.419 130.641 C 231.005 130.77 243.249 142.843 252.049 164.535 C 252.178 164.867 252.489 165.028 252.833 164.968 L 252.972 164.944 C 253.304 164.815 253.506 164.354 253.381 164.021 C 244.404 141.724 231.605 129.316 217.446 129.143 C 217.401 129.142 217.357 129.149 217.318 129.156 Z" fill-rule="evenodd"/>
  <path fill="#f28583" d="M 284.331 175.444 C 283.631 175.565 282.922 175.769 282.232 176.059 C 278.066 177.843 275.805 181.997 277.242 185.371 C 278.438 188.213 281.758 189.619 285.223 189.019 C 285.954 188.892 286.692 188.674 287.419 188.364 C 288.612 187.875 289.413 187.167 290.255 186.308 C 290.002 182.805 289.752 179.297 289.015 175.874 C 287.624 175.321 285.986 175.157 284.331 175.444 Z" fill-rule="evenodd"/>
  <path fill="#f28583" d="M 205.722 208.53 C 205.021 208.652 204.315 208.85 203.625 209.136 C 199.46 210.925 197.199 215.079 198.647 218.518 C 199.834 221.303 203.147 222.702 206.608 222.102 C 207.344 221.974 208.082 221.757 208.807 221.442 C 212.985 219.727 215.165 215.516 213.798 212.13 C 212.602 209.32 209.23 207.922 205.722 208.53 Z" fill-rule="evenodd"/>
  <path fill="#4d342d" d="M 264.082 170.964 C 263.189 171.118 262.315 171.431 261.493 171.915 C 257.645 174.286 256.572 179.583 259.072 183.764 C 261.046 187.103 264.662 188.798 268.023 188.216 C 268.941 188.057 269.84 187.73 270.679 187.217 C 274.54 184.916 275.608 179.619 273.095 175.369 C 271.119 172.062 267.468 170.377 264.082 170.964 Z" fill-rule="evenodd"/>
  <path fill="#4d342d" d="M 215.764 191.32 C 215.568 191.354 215.373 191.393 215.18 191.444 C 210.772 192.634 208.263 197.4 209.512 202.152 C 210.697 206.659 214.86 209.565 219.047 208.839 C 219.274 208.8 219.503 208.751 219.734 208.689 C 224.084 207.58 226.582 202.744 225.331 197.988 C 224.137 193.452 219.93 190.598 215.764 191.32 Z" fill-rule="evenodd"/>
  <path fill="#4d342d" d="M 261.902 162.71 C 259.943 163.05 258.015 163.85 256.33 165.071 C 255.759 165.452 255.613 166.262 256.064 166.821 C 256.344 167.198 256.805 167.4 257.289 167.317 C 257.493 167.281 257.621 167.192 257.814 167.087 C 259.168 166.108 260.729 165.46 262.304 165.187 C 263.593 164.964 264.894 164.994 266.094 165.297 C 266.272 165.338 266.452 165.343 266.622 165.313 C 267.101 165.23 267.52 164.88 267.641 164.388 C 267.812 163.721 267.414 163.078 266.736 162.841 C 265.186 162.464 263.534 162.427 261.902 162.71 Z" fill-rule="evenodd"/>
  <path fill="#4d342d" d="M 213.78 182.952 C 210.058 183.597 206.751 185.807 205.009 188.876 C 204.68 189.431 204.893 190.246 205.517 190.563 C 205.757 190.732 206.043 190.755 206.322 190.706 C 206.666 190.647 207.056 190.44 207.212 190.126 C 208.635 187.678 211.245 185.947 214.279 185.421 C 215.037 185.29 215.425 184.658 215.305 183.966 C 215.186 183.278 214.537 182.821 213.849 182.94 L 213.78 182.952 Z" fill-rule="evenodd"/>
  <path fill="#4d342d" d="M 248.33 186.948 C 248.243 186.964 248.153 186.988 248.064 187.021 C 247.482 187.333 247.188 188.097 247.435 188.691 C 247.912 189.814 247.692 193.049 244.319 194.486 C 243.791 194.726 243.28 194.881 242.792 194.966 C 240.267 195.404 238.418 193.944 237.94 192.893 C 237.724 192.374 237.123 192.084 236.574 192.179 C 236.491 192.193 236.415 192.215 236.335 192.247 C 235.671 192.506 235.377 193.265 235.632 193.934 C 236.567 196.041 239.618 198.072 243.27 197.439 C 243.958 197.32 244.638 197.13 245.359 196.79 C 249.91 194.795 250.811 190.164 249.739 187.655 C 249.524 187.136 248.922 186.846 248.33 186.948 Z" fill-rule="evenodd"/>
</svg>